<svg xmlns="http://www.w3.org/2000/svg" viewBox="0 0 64 64">
  <defs>
    <radialGradient id="bg" cx="34%" cy="24%" r="78%">
      <stop offset="0" stop-color="#ffd98d" />
      <stop offset="0.52" stop-color="#ef7e2c" />
      <stop offset="1" stop-color="#9e361d" />
    </radialGradient>
    <linearGradient id="fur" x1="18" x2="48" y1="10" y2="56">
      <stop stop-color="#d9894a" />
      <stop offset="1" stop-color="#8f3d1f" />
    </linearGradient>
    <linearGradient id="nut" x1="24" x2="42" y1="32" y2="55">
      <stop stop-color="#8b2f19" />
      <stop offset="1" stop-color="#4b1d12" />
    </linearGradient>
  </defs>
  <circle cx="32" cy="32" r="30" fill="url(#bg)" />
  <path fill="#f7b04d" d="M8 15c8 1 12 4 15 11-8 1-14-2-18-8 3 1 5 1 8 0-2-1-4-2-5-3Z" opacity=".75" />
  <path fill="#d84b26" d="M50 8c-3 8-8 12-16 14 1-8 6-14 13-17-1 3-1 5 0 8 1-2 2-4 3-5Z" opacity=".78" />
  <path fill="#7a3b21" d="M15 37c-7-9-3-23 9-26 11-3 20 6 18 17-1 8-7 15-15 16-5 1-9-1-12-7Z" opacity=".45" />
  <path fill="url(#fur)" d="M18 39c-6-9-3-24 10-27 13-2 22 8 19 21-2 9-9 16-18 17-5 0-9-3-11-11Z" />
  <path fill="#7b351d" d="M20 16 15 7l10 4Zm23 2 8-8 1 12Z" />
  <ellipse cx="31" cy="32" fill="#f5c191" rx="15" ry="14" />
  <circle cx="25" cy="27" r="4.8" fill="#fff7eb" />
  <circle cx="39" cy="27" r="4.8" fill="#fff7eb" />
  <circle cx="26" cy="28" r="2.7" fill="#1e100b" />
  <circle cx="40" cy="28" r="2.7" fill="#1e100b" />
  <circle cx="27" cy="26.7" r="1" fill="#fff" />
  <circle cx="41" cy="26.7" r="1" fill="#fff" />
  <path fill="#5f2d18" d="M32 35c3 0 5 2 5 4-2 2-7 2-10 0 0-2 2-4 5-4Z" />
  <path fill="url(#nut)" d="M24 43c0-8 4-13 10-13s10 5 10 13c0 7-4 12-10 12s-10-5-10-12Z" />
  <path fill="#ddb066" d="M25 40c2-5 5-8 9-8s7 3 9 8c-5 2-12 2-18 0Z" />
  <path fill="#c46d33" d="M20 44c2-4 5-6 8-4l-2 6c-3 1-5 0-6-2Zm28 0c-2-4-5-6-8-4l2 6c3 1 5 0 6-2Z" />
</svg>
