<svg xmlns="http://www.w3.org/2000/svg" width="20" height="20" viewBox="0 0 20 20" fill="none">
  <path
    d="M7.5 0.833984H15.834C17.6747 0.834292 19.167 2.32623 19.167 4.16699V15.834C19.1667 17.6745 17.6745 19.1667 15.834 19.167H4.16699C2.32625 19.167 0.834326 17.6746 0.833984 15.834V4.16699C0.833984 2.32604 2.32604 0.833984 4.16699 0.833984H5.83301V0.833008H7.5V0.833984ZM7.5 17.5H15.834C16.754 17.4997 17.4997 16.754 17.5 15.834V4.16699C17.5 3.24671 16.7542 2.50031 15.834 2.5H7.5V17.5ZM4.16699 2.5C3.24652 2.5 2.5 3.24652 2.5 4.16699V15.834C2.50034 16.7542 3.24673 17.5 4.16699 17.5H5.83301V2.5H4.16699Z"
    fill="currentColor" />
</svg>
